<?xml version="1.0" encoding="UTF-8"?>
<svg width="96px" height="31px" viewBox="0 0 96 31" version="1.1" xmlns="http://www.w3.org/2000/svg" xmlns:xlink="http://www.w3.org/1999/xlink">
    <title>Group</title>
    <g id="Symbols" stroke="none" stroke-width="1" fill="none" fill-rule="evenodd">
        <g id="-logo-/-with-tagline" transform="translate(0.000000, -2.000000)">
            <g id="Group" transform="translate(0.000000, 2.000000)">
                <g fill="#80BA27" id="logo">
                    <path d="M59.7193412,3.97603854e-15 L59.7193412,7.66509502 L73.8635294,7.66509502 L73.8635294,21.6724434 L81.5915294,21.6724434 L81.5915294,7.66509502 L95.7357176,7.66509502 L95.7357176,3.97603854e-15 L59.7193412,3.97603854e-15 Z M48.8967529,3.97603854e-15 L27.0262588,21.6724434 L37.9550118,21.6724434 L48.8967529,10.8300664 L59.8384941,21.6724434 L70.7706353,21.6724434 L48.8973176,3.97603854e-15 L48.8967529,3.97603854e-15 Z M32.8128,3.97603854e-15 L21.8699294,10.8412579 L10.9293176,3.97603854e-15 L0,3.97603854e-15 L21.8699294,21.6724434 L43.7426824,3.97603854e-15 L32.8128,3.97603854e-15 Z" id="Fill-1"></path>
                </g>
                <path d="M6.02800024,28.278 L4.97100024,28.278 L4.97100024,30 L4.41800024,30 L4.41800024,25.702 L6.02800024,25.702 C6.89600024,25.702 7.44200024,26.143 7.44200024,26.99 C7.44200024,27.83 6.89600024,28.278 6.02800024,28.278 Z M6.89600024,26.99 C6.89600024,26.5 6.59500024,26.185 6.01400024,26.185 L4.97100024,26.185 L4.97100024,27.788 L6.01400024,27.788 C6.59500024,27.788 6.89600024,27.473 6.89600024,26.99 Z M9.37400022,25.702 L9.89200022,25.702 L11.5720002,30 L11.0120002,30 L10.5150002,28.705 L8.74400022,28.705 L8.25400022,30 L7.69400022,30 L9.37400022,25.702 Z M9.62600022,26.388 L8.92600022,28.222 L10.3260002,28.222 L9.62600022,26.388 Z M12.0340002,28.88 L12.5940002,28.88 C12.7550002,29.356 13.1610002,29.594 13.6860002,29.594 C14.2460002,29.594 14.6380002,29.321 14.6380002,28.845 C14.6380002,28.509 14.4490002,28.292 13.9520002,28.166 L13.1820002,27.963 C12.5870002,27.809 12.1530002,27.508 12.1530002,26.857 C12.1530002,26.129 12.7550002,25.639 13.5670002,25.639 C14.4560002,25.639 14.9810002,26.094 15.1420002,26.773 L14.5890002,26.773 C14.4560002,26.388 14.1340002,26.108 13.5670002,26.108 C13.0560002,26.108 12.6780002,26.374 12.6780002,26.815 C12.6780002,27.179 12.9160002,27.354 13.3640002,27.473 L14.0990002,27.662 C14.7850002,27.837 15.1700002,28.208 15.1700002,28.817 C15.1700002,29.594 14.5400002,30.063 13.6860002,30.063 C12.8320002,30.063 12.1950002,29.636 12.0340002,28.88 Z M15.7860002,28.88 L16.3460002,28.88 C16.5070002,29.356 16.9130002,29.594 17.4380002,29.594 C17.9980002,29.594 18.3900002,29.321 18.3900002,28.845 C18.3900002,28.509 18.2010002,28.292 17.7040002,28.166 L16.9340002,27.963 C16.3390002,27.809 15.9050002,27.508 15.9050002,26.857 C15.9050002,26.129 16.5070002,25.639 17.3190002,25.639 C18.2080002,25.639 18.7330002,26.094 18.8940002,26.773 L18.3410002,26.773 C18.2080002,26.388 17.8860002,26.108 17.3190002,26.108 C16.8080002,26.108 16.4300002,26.374 16.4300002,26.815 C16.4300002,27.179 16.6680002,27.354 17.1160002,27.473 L17.8510002,27.662 C18.5370002,27.837 18.9220002,28.208 18.9220002,28.817 C18.9220002,29.594 18.2920002,30.063 17.4380002,30.063 C16.5840002,30.063 15.9470002,29.636 15.7860002,28.88 Z M20.4270002,25.702 L20.4270002,30 L19.8740002,30 L19.8740002,25.702 L20.4270002,25.702 Z M25.2570002,27.851 C25.2570002,29.146 24.4450002,30.063 23.3110002,30.063 C22.1840002,30.063 21.3720002,29.146 21.3720002,27.851 C21.3720002,26.549 22.1840002,25.639 23.3110002,25.639 C24.4450002,25.639 25.2570002,26.549 25.2570002,27.851 Z M24.7040002,27.851 C24.7040002,26.843 24.1440002,26.136 23.3110002,26.136 C22.4850002,26.136 21.9250002,26.843 21.9250002,27.851 C21.9250002,28.859 22.4850002,29.566 23.3110002,29.566 C24.1440002,29.566 24.7040002,28.859 24.7040002,27.851 Z M29.5410001,25.702 L29.5410001,30 L29.1350001,30 L26.7340001,26.584 L26.7340001,30 L26.2020001,30 L26.2020001,25.702 L26.7270001,25.702 L29.0160001,28.971 L29.0160001,25.702 L29.5410001,25.702 Z M30.4510001,29.657 C30.4510001,29.44 30.6190001,29.272 30.8290001,29.272 C31.0320001,29.272 31.2000001,29.44 31.2000001,29.657 C31.2000001,29.874 31.0320001,30.035 30.8290001,30.035 C30.6190001,30.035 30.4510001,29.874 30.4510001,29.657 Z M35.4420001,28.278 L34.3850001,28.278 L34.3850001,30 L33.8320001,30 L33.8320001,25.702 L35.4420001,25.702 C36.3100001,25.702 36.8560001,26.143 36.8560001,26.99 C36.8560001,27.83 36.3100001,28.278 35.4420001,28.278 Z M36.3100001,26.99 C36.3100001,26.5 36.0090001,26.185 35.4280001,26.185 L34.3850001,26.185 L34.3850001,27.788 L35.4280001,27.788 C36.0090001,27.788 36.3100001,27.473 36.3100001,26.99 Z M39.0820001,28.18 L38.3190001,28.18 L38.3190001,30 L37.7660001,30 L37.7660001,25.702 L39.3620001,25.702 C40.2230001,25.702 40.7690001,26.136 40.7690001,26.948 C40.7690001,27.662 40.3490001,28.068 39.6770001,28.159 L40.9440001,30 L40.3140001,30 L39.0820001,28.18 Z M38.3190001,26.185 L38.3190001,27.711 L39.3480001,27.711 C39.9150001,27.711 40.2230001,27.424 40.2230001,26.948 C40.2230001,26.472 39.9150001,26.185 39.3480001,26.185 L38.3190001,26.185 Z M41.805,25.702 L44.542,25.702 L44.542,26.192 L42.351,26.192 L42.351,27.55 L44.339,27.55 L44.339,28.04 L42.351,28.04 L42.351,29.503 L44.542,29.503 L44.542,30 L41.805,30 L41.805,25.702 Z M45.333,27.851 C45.333,26.514 46.173,25.639 47.258,25.639 C48.161,25.639 48.756,26.164 48.931,26.962 L48.385,26.962 C48.21,26.465 47.853,26.136 47.258,26.136 C46.439,26.136 45.886,26.829 45.886,27.851 C45.886,28.866 46.432,29.566 47.258,29.566 C47.853,29.566 48.21,29.237 48.385,28.733 L48.931,28.733 C48.756,29.538 48.154,30.063 47.258,30.063 C46.173,30.063 45.333,29.188 45.333,27.851 Z M50.415,25.702 L50.415,30 L49.862,30 L49.862,25.702 L50.415,25.702 Z M51.262,28.88 L51.822,28.88 C51.983,29.356 52.389,29.594 52.914,29.594 C53.474,29.594 53.866,29.321 53.866,28.845 C53.866,28.509 53.677,28.292 53.18,28.166 L52.41,27.963 C51.815,27.809 51.381,27.508 51.381,26.857 C51.381,26.129 51.983,25.639 52.795,25.639 C53.684,25.639 54.209,26.094 54.37,26.773 L53.817,26.773 C53.684,26.388 53.362,26.108 52.795,26.108 C52.284,26.108 51.906,26.374 51.906,26.815 C51.906,27.179 52.144,27.354 52.592,27.473 L53.327,27.662 C54.013,27.837 54.398,28.208 54.398,28.817 C54.398,29.594 53.768,30.063 52.914,30.063 C52.06,30.063 51.423,29.636 51.262,28.88 Z M55.903,25.702 L55.903,30 L55.35,30 L55.35,25.702 L55.903,25.702 Z M60.733,27.851 C60.733,29.146 59.921,30.063 58.787,30.063 C57.66,30.063 56.848,29.146 56.848,27.851 C56.848,26.549 57.66,25.639 58.787,25.639 C59.921,25.639 60.733,26.549 60.733,27.851 Z M60.18,27.851 C60.18,26.843 59.62,26.136 58.787,26.136 C57.961,26.136 57.401,26.843 57.401,27.851 C57.401,28.859 57.961,29.566 58.787,29.566 C59.62,29.566 60.18,28.859 60.18,27.851 Z M65.0169999,25.702 L65.0169999,30 L64.6109999,30 L62.2099999,26.584 L62.2099999,30 L61.6779999,30 L61.6779999,25.702 L62.2029999,25.702 L64.4919999,28.971 L64.4919999,25.702 L65.0169999,25.702 Z M65.9269999,29.657 C65.9269999,29.44 66.0949999,29.272 66.3049999,29.272 C66.5079999,29.272 66.6759999,29.44 66.6759999,29.657 C66.6759999,29.874 66.5079999,30.035 66.3049999,30.035 C66.0949999,30.035 65.9269999,29.874 65.9269999,29.657 Z M70.9179999,28.278 L69.8609999,28.278 L69.8609999,30 L69.3079999,30 L69.3079999,25.702 L70.9179999,25.702 C71.7859999,25.702 72.3319999,26.143 72.3319999,26.99 C72.3319999,27.83 71.7859999,28.278 70.9179999,28.278 Z M71.7859999,26.99 C71.7859999,26.5 71.4849999,26.185 70.9039999,26.185 L69.8609999,26.185 L69.8609999,27.788 L70.9039999,27.788 C71.4849999,27.788 71.7859999,27.473 71.7859999,26.99 Z M74.8519999,30.063 C73.8789999,30.063 73.1719999,29.475 73.1719999,28.292 L73.1719999,25.702 L73.7179999,25.702 L73.7179999,28.229 C73.7179999,29.146 74.1589999,29.573 74.8519999,29.573 C75.5449999,29.573 75.9859999,29.146 75.9859999,28.229 L75.9859999,25.702 L76.5389999,25.702 L76.5389999,28.299 C76.5389999,29.475 75.8319999,30.063 74.8519999,30.063 Z M78.9819998,28.18 L78.2189998,28.18 L78.2189998,30 L77.6659998,30 L77.6659998,25.702 L79.2619998,25.702 C80.1229998,25.702 80.6689998,26.136 80.6689998,26.948 C80.6689998,27.662 80.2489998,28.068 79.5769998,28.159 L80.8439998,30 L80.2139998,30 L78.9819998,28.18 Z M78.2189998,26.185 L78.2189998,27.711 L79.2479998,27.711 C79.8149998,27.711 80.1229998,27.424 80.1229998,26.948 C80.1229998,26.472 79.8149998,26.185 79.2479998,26.185 L78.2189998,26.185 Z M82.2579998,25.702 L82.2579998,30 L81.7049998,30 L81.7049998,25.702 L82.2579998,25.702 Z M83.1539998,26.192 L83.1539998,25.702 L86.7029998,25.702 L86.7029998,26.192 L85.2049998,26.192 L85.2049998,30 L84.6519998,30 L84.6519998,26.192 L83.1539998,26.192 Z M89.0479998,27.732 L90.2869998,25.702 L90.8749998,25.702 L89.3069998,28.229 L89.3069998,30 L88.7609998,30 L88.7609998,28.229 L87.2069998,25.702 L87.8089998,25.702 L89.0479998,27.732 Z M90.9449998,29.657 C90.9449998,29.44 91.1129998,29.272 91.3229998,29.272 C91.5259998,29.272 91.6939998,29.44 91.6939998,29.657 C91.6939998,29.874 91.5259998,30.035 91.3229998,30.035 C91.1129998,30.035 90.9449998,29.874 90.9449998,29.657 Z" id="PASSION.-PRECISION." fill="#000000" opacity="0.497796"></path>
            </g>
        </g>
    </g>
</svg>